<?xml version="1.0" encoding="UTF-8" standalone="no"?>
<!DOCTYPE svg PUBLIC "-//W3C//DTD SVG 1.1//EN" "http://www.w3.org/Graphics/SVG/1.1/DTD/svg11.dtd">
<svg width="100%" height="100%" viewBox="0 0 462 462" version="1.1" xmlns="http://www.w3.org/2000/svg" xmlns:xlink="http://www.w3.org/1999/xlink" xml:space="preserve" xmlns:serif="http://www.serif.com/" style="fill-rule:evenodd;clip-rule:evenodd;stroke-linejoin:round;stroke-miterlimit:2;">
    <g transform="matrix(1,0,0,1,-269.355,-269.355)">
        <g transform="matrix(1,0,0,1,0,53.1099)">
            <g transform="matrix(1,0,0,1,-3883.81,-2841.5)">
                <g>
                    <g transform="matrix(0.445758,0,0,0.445758,3955.5,3014.65)">
                        <path d="M958.686,113.813C958.902,112.777 959.816,112.034 960.875,112.034C961.934,112.034 962.847,112.777 963.064,113.814C967.79,135.853 982.709,172.47 1029.81,182.355C1030.83,182.594 1031.53,183.511 1031.5,184.549C1031.47,185.588 1030.71,186.461 1029.69,186.639C982.52,193.632 967.683,219.38 963.016,234.798C962.739,235.749 961.867,236.403 960.876,236.403C959.885,236.403 959.014,235.748 958.736,234.797C954.068,219.38 939.231,193.632 892.06,186.664C891.023,186.486 890.256,185.602 890.225,184.551C890.194,183.5 890.907,182.572 891.931,182.333C939.042,172.47 953.961,135.853 958.686,113.813Z" style="fill:white;"/>
                    </g>
                    <g transform="matrix(0.445758,0,0,0.445758,3955.5,3014.65)">
                        <path d="M958.686,113.813C958.902,112.777 959.816,112.034 960.875,112.034C961.934,112.034 962.847,112.777 963.064,113.814C967.79,135.853 982.709,172.47 1029.81,182.355C1030.83,182.594 1031.53,183.511 1031.5,184.549C1031.47,185.588 1030.71,186.461 1029.69,186.639C982.52,193.632 967.683,219.38 963.016,234.798C962.739,235.749 961.867,236.403 960.876,236.403C959.885,236.403 959.014,235.748 958.736,234.797C954.068,219.38 939.231,193.632 892.06,186.664C891.023,186.486 890.256,185.602 890.225,184.551C890.194,183.5 890.907,182.572 891.931,182.333C939.042,172.47 953.961,135.853 958.686,113.813Z" style="fill:white;"/>
                    </g>
                    <g transform="matrix(0.445758,0,0,0.445758,3955.5,3014.65)">
                        <path d="M958.686,113.813C958.902,112.777 959.816,112.034 960.875,112.034C961.934,112.034 962.847,112.777 963.064,113.814C967.79,135.853 982.709,172.47 1029.81,182.355C1030.83,182.594 1031.53,183.511 1031.5,184.549C1031.47,185.588 1030.71,186.461 1029.69,186.639C982.52,193.632 967.683,219.38 963.016,234.798C962.739,235.749 961.867,236.403 960.876,236.403C959.885,236.403 959.014,235.748 958.736,234.797C954.068,219.38 939.231,193.632 892.06,186.664C891.023,186.486 890.256,185.602 890.225,184.551C890.194,183.5 890.907,182.572 891.931,182.333C939.042,172.47 953.961,135.853 958.686,113.813Z" style="fill:white;"/>
                    </g>
                    <g transform="matrix(0.386038,0.222879,-0.222879,0.386038,4149.75,2837.17)">
                        <path d="M958.686,113.813C958.902,112.777 959.816,112.034 960.875,112.034C961.934,112.034 962.847,112.777 963.064,113.814C967.79,135.853 982.708,172.468 1029.81,182.354C1030.82,182.591 1031.53,183.508 1031.5,184.547C1031.47,185.586 1030.71,186.461 1029.69,186.639C982.52,193.632 967.683,219.38 963.016,234.798C962.739,235.749 961.867,236.403 960.876,236.403C959.885,236.403 959.014,235.748 958.736,234.797C954.068,219.38 939.231,193.632 892.06,186.664C891.023,186.486 890.256,185.602 890.225,184.551C890.194,183.5 890.907,182.572 891.931,182.333C939.042,172.47 953.961,135.853 958.686,113.813Z" style="fill:white;"/>
                    </g>
                    <g transform="matrix(0.222879,0.386038,-0.386038,0.222879,4406.72,2780.59)">
                        <path d="M958.686,113.813C958.902,112.777 959.816,112.034 960.875,112.034C961.934,112.034 962.847,112.777 963.064,113.814C967.79,135.853 982.709,172.47 1029.81,182.355C1030.83,182.594 1031.53,183.511 1031.5,184.549C1031.47,185.588 1030.71,186.461 1029.69,186.639C982.52,193.632 967.683,219.38 963.016,234.798C962.739,235.749 961.867,236.403 960.876,236.403C959.885,236.403 959.014,235.748 958.736,234.797C954.068,219.38 939.231,193.632 892.06,186.664C891.025,186.484 890.259,185.6 890.229,184.549C890.199,183.499 890.912,182.573 891.935,182.333C939.042,172.468 953.961,135.853 958.686,113.813Z" style="fill:white;"/>
                    </g>
                    <g transform="matrix(1.11022e-16,0.445758,-0.445758,1.11022e-16,4657.55,2860.08)">
                        <path d="M958.686,113.813C958.902,112.777 959.816,112.034 960.875,112.034C961.934,112.034 962.847,112.777 963.064,113.814C967.79,135.853 982.709,172.47 1029.81,182.355C1030.83,182.594 1031.53,183.511 1031.5,184.549C1031.47,185.588 1030.71,186.461 1029.69,186.639C982.52,193.632 967.683,219.38 963.016,234.798C962.739,235.749 961.867,236.403 960.876,236.403C959.885,236.403 959.014,235.748 958.736,234.797C954.068,219.38 939.231,193.632 892.06,186.664C891.023,186.486 890.256,185.602 890.225,184.551C890.194,183.5 890.907,182.572 891.931,182.333C939.042,172.47 953.961,135.853 958.686,113.813Z" style="fill:white;"/>
                    </g>
                    <g transform="matrix(-0.222879,0.386038,-0.386038,-0.222879,4835.03,3054.33)">
                        <path d="M958.686,113.813C958.902,112.777 959.816,112.034 960.875,112.034C961.934,112.034 962.847,112.777 963.064,113.814C967.79,135.853 982.708,172.468 1029.81,182.354C1030.82,182.591 1031.53,183.508 1031.5,184.547C1031.47,185.586 1030.71,186.461 1029.69,186.639C982.52,193.632 967.683,219.38 963.016,234.798C962.739,235.749 961.867,236.403 960.876,236.403C959.885,236.403 959.014,235.748 958.736,234.797C954.068,219.38 939.231,193.632 892.06,186.664C891.023,186.486 890.256,185.602 890.225,184.551C890.194,183.5 890.907,182.572 891.931,182.333C939.042,172.47 953.961,135.853 958.686,113.813Z" style="fill:white;"/>
                    </g>
                    <g transform="matrix(-0.386038,0.222879,-0.222879,-0.386038,4891.61,3311.29)">
                        <path d="M958.686,113.813C958.902,112.777 959.816,112.034 960.875,112.034C961.934,112.034 962.847,112.777 963.064,113.814C967.79,135.853 982.709,172.47 1029.81,182.355C1030.83,182.594 1031.53,183.511 1031.5,184.549C1031.47,185.588 1030.71,186.461 1029.69,186.639C982.52,193.632 967.683,219.38 963.016,234.798C962.739,235.749 961.867,236.403 960.876,236.403C959.885,236.403 959.014,235.748 958.736,234.797C954.068,219.38 939.231,193.632 892.06,186.664C891.025,186.484 890.259,185.6 890.229,184.549C890.199,183.499 890.912,182.573 891.935,182.333C939.042,172.468 953.961,135.853 958.686,113.813Z" style="fill:white;"/>
                    </g>
                    <g transform="matrix(-0.445758,2.22045e-16,-2.22045e-16,-0.445758,4812.13,3562.12)">
                        <path d="M958.686,113.813C958.902,112.777 959.816,112.034 960.875,112.034C961.934,112.034 962.847,112.777 963.064,113.814C967.79,135.853 982.709,172.47 1029.81,182.355C1030.83,182.594 1031.53,183.511 1031.5,184.549C1031.47,185.588 1030.71,186.461 1029.69,186.639C982.52,193.632 967.683,219.38 963.016,234.798C962.739,235.749 961.867,236.403 960.876,236.403C959.885,236.403 959.014,235.748 958.736,234.797C954.068,219.38 939.231,193.632 892.06,186.664C891.023,186.486 890.256,185.602 890.225,184.551C890.194,183.5 890.907,182.572 891.931,182.333C939.042,172.47 953.961,135.853 958.686,113.813Z" style="fill:white;"/>
                    </g>
                    <g transform="matrix(-0.386038,-0.222879,0.222879,-0.386038,4617.87,3739.61)">
                        <path d="M958.686,113.813C958.902,112.777 959.816,112.034 960.875,112.034C961.934,112.034 962.847,112.777 963.064,113.814C967.79,135.853 982.708,172.468 1029.81,182.354C1030.82,182.591 1031.53,183.508 1031.5,184.547C1031.47,185.586 1030.71,186.461 1029.69,186.639C982.52,193.632 967.683,219.38 963.016,234.798C962.739,235.749 961.867,236.403 960.876,236.403C959.885,236.403 959.014,235.748 958.736,234.797C954.068,219.38 939.231,193.632 892.06,186.664C891.023,186.486 890.256,185.602 890.225,184.551C890.194,183.5 890.907,182.572 891.931,182.333C939.042,172.47 953.961,135.853 958.686,113.813Z" style="fill:white;"/>
                    </g>
                    <g transform="matrix(-0.222879,-0.386038,0.386038,-0.222879,4360.91,3796.18)">
                        <path d="M958.686,113.813C958.902,112.777 959.816,112.034 960.875,112.034C961.934,112.034 962.847,112.777 963.064,113.814C967.79,135.853 982.709,172.47 1029.81,182.355C1030.83,182.594 1031.53,183.511 1031.5,184.549C1031.47,185.588 1030.71,186.461 1029.69,186.639C982.52,193.632 967.683,219.38 963.016,234.798C962.739,235.749 961.867,236.403 960.876,236.403C959.885,236.403 959.014,235.748 958.736,234.797C954.068,219.38 939.231,193.632 892.06,186.664C891.025,186.484 890.259,185.6 890.229,184.549C890.199,183.499 890.912,182.573 891.935,182.333C939.042,172.468 953.961,135.853 958.686,113.813Z" style="fill:white;"/>
                    </g>
                    <g transform="matrix(-3.33067e-16,-0.445758,0.445758,-3.33067e-16,4110.08,3716.7)">
                        <path d="M958.686,113.813C958.902,112.777 959.816,112.034 960.875,112.034C961.934,112.034 962.847,112.777 963.064,113.814C967.79,135.853 982.709,172.47 1029.81,182.355C1030.83,182.594 1031.53,183.511 1031.5,184.549C1031.47,185.588 1030.71,186.461 1029.69,186.639C982.52,193.632 967.683,219.38 963.016,234.798C962.739,235.749 961.867,236.403 960.876,236.403C959.885,236.403 959.014,235.748 958.736,234.797C954.068,219.38 939.231,193.632 892.06,186.664C891.023,186.486 890.256,185.602 890.225,184.551C890.194,183.5 890.907,182.572 891.931,182.333C939.042,172.47 953.961,135.853 958.686,113.813Z" style="fill:white;"/>
                    </g>
                    <g transform="matrix(0.222879,-0.386038,0.386038,0.222879,3932.6,3522.45)">
                        <path d="M958.686,113.813C958.902,112.777 959.816,112.034 960.875,112.034C961.934,112.034 962.847,112.777 963.064,113.814C967.79,135.853 982.708,172.468 1029.81,182.354C1030.82,182.591 1031.53,183.508 1031.5,184.547C1031.47,185.586 1030.71,186.461 1029.69,186.639C982.52,193.632 967.683,219.38 963.016,234.798C962.739,235.749 961.867,236.403 960.876,236.403C959.885,236.403 959.014,235.748 958.736,234.797C954.068,219.38 939.231,193.632 892.06,186.664C891.023,186.486 890.256,185.602 890.225,184.551C890.194,183.5 890.907,182.572 891.931,182.333C939.042,172.47 953.961,135.853 958.686,113.813Z" style="fill:white;"/>
                    </g>
                    <g transform="matrix(0.386038,-0.222879,0.222879,0.386038,3876.02,3265.48)">
                        <path d="M958.686,113.813C958.902,112.777 959.816,112.034 960.875,112.034C961.934,112.034 962.847,112.777 963.064,113.814C967.79,135.853 982.709,172.47 1029.81,182.355C1030.83,182.594 1031.53,183.511 1031.5,184.549C1031.47,185.588 1030.71,186.461 1029.69,186.639C982.52,193.632 967.683,219.38 963.016,234.798C962.739,235.749 961.867,236.403 960.876,236.403C959.885,236.403 959.014,235.748 958.736,234.797C954.068,219.38 939.231,193.632 892.06,186.664C891.025,186.484 890.259,185.6 890.229,184.549C890.199,183.499 890.912,182.573 891.935,182.333C939.042,172.468 953.961,135.853 958.686,113.813Z" style="fill:white;"/>
                    </g>
                </g>
            </g>
        </g>
    </g>
</svg>
